<mxfile host="app.diagrams.net" modified="2021-02-28T13:34:12.661Z" agent="5.0 (Macintosh; Intel Mac OS X 10_15_6) AppleWebKit/605.1.15 (KHTML, like Gecko) Version/14.0.3 Safari/605.1.15" etag="yk86MWHcx-win9QllErp" version="14.1.9" type="github">
  <diagram id="-MPe8nca0d-tUbq6-nn4" name="Page-1">
    <mxGraphModel dx="946" dy="545" grid="1" gridSize="10" guides="1" tooltips="1" connect="1" arrows="1" fold="1" page="1" pageScale="1" pageWidth="827" pageHeight="1169" math="0" shadow="0">
      <root>
        <mxCell id="0" />
        <mxCell id="1" parent="0" />
        <mxCell id="NaBnMIQsTlutXxkyaKWA-1" value="" style="rounded=0;whiteSpace=wrap;html=1;strokeColor=#000000;fontSize=9;fillColor=none;dashed=1;" vertex="1" parent="1">
          <mxGeometry x="200" y="80" width="430" height="380" as="geometry" />
        </mxCell>
        <mxCell id="NaBnMIQsTlutXxkyaKWA-2" value="&lt;b&gt;SDK&lt;/b&gt;" style="rounded=1;whiteSpace=wrap;html=1;verticalAlign=bottom;fillColor=#e1d5e7;strokeColor=#9673a6;" vertex="1" parent="1">
          <mxGeometry x="259" y="280" width="310" height="151" as="geometry" />
        </mxCell>
        <mxCell id="NaBnMIQsTlutXxkyaKWA-6" value="人脸认证界面" style="rounded=0;whiteSpace=wrap;html=1;dashed=1;strokeColor=#000000;fontSize=9;" vertex="1" parent="1">
          <mxGeometry x="310" y="383" width="70" height="17" as="geometry" />
        </mxCell>
        <mxCell id="NaBnMIQsTlutXxkyaKWA-8" value="其他界面" style="rounded=0;whiteSpace=wrap;html=1;dashed=1;strokeColor=#000000;fontSize=9;" vertex="1" parent="1">
          <mxGeometry x="430" y="382" width="90" height="18" as="geometry" />
        </mxCell>
        <mxCell id="NaBnMIQsTlutXxkyaKWA-15" value="&lt;b&gt;&lt;font style=&quot;font-size: 12px&quot;&gt;APP&lt;/font&gt;&lt;/b&gt;" style="rounded=1;whiteSpace=wrap;html=1;strokeColor=#d79b00;fontSize=9;verticalAlign=top;fillColor=#ffe6cc;" vertex="1" parent="1">
          <mxGeometry x="294" y="160" width="240" height="80" as="geometry" />
        </mxCell>
        <mxCell id="NaBnMIQsTlutXxkyaKWA-31" style="edgeStyle=orthogonalEdgeStyle;rounded=0;orthogonalLoop=1;jettySize=auto;html=1;entryX=0.5;entryY=0;entryDx=0;entryDy=0;dashed=1;" edge="1" parent="1" source="NaBnMIQsTlutXxkyaKWA-18" target="NaBnMIQsTlutXxkyaKWA-23">
          <mxGeometry relative="1" as="geometry" />
        </mxCell>
        <mxCell id="NaBnMIQsTlutXxkyaKWA-40" style="edgeStyle=orthogonalEdgeStyle;rounded=0;orthogonalLoop=1;jettySize=auto;html=1;entryX=0.25;entryY=0;entryDx=0;entryDy=0;dashed=1;exitX=1;exitY=0.5;exitDx=0;exitDy=0;" edge="1" parent="1" source="NaBnMIQsTlutXxkyaKWA-18" target="NaBnMIQsTlutXxkyaKWA-39">
          <mxGeometry relative="1" as="geometry">
            <Array as="points">
              <mxPoint x="396" y="199" />
            </Array>
          </mxGeometry>
        </mxCell>
        <mxCell id="NaBnMIQsTlutXxkyaKWA-18" value="手势认证界面" style="rounded=0;whiteSpace=wrap;html=1;fontSize=9;fillColor=#dae8fc;strokeColor=none;" vertex="1" parent="1">
          <mxGeometry x="320" y="189" width="60" height="20" as="geometry" />
        </mxCell>
        <mxCell id="NaBnMIQsTlutXxkyaKWA-30" style="edgeStyle=orthogonalEdgeStyle;rounded=0;orthogonalLoop=1;jettySize=auto;html=1;entryX=0.5;entryY=0;entryDx=0;entryDy=0;dashed=1;" edge="1" parent="1" source="NaBnMIQsTlutXxkyaKWA-21" target="NaBnMIQsTlutXxkyaKWA-22">
          <mxGeometry relative="1" as="geometry" />
        </mxCell>
        <mxCell id="NaBnMIQsTlutXxkyaKWA-32" value="继承" style="edgeLabel;html=1;align=center;verticalAlign=middle;resizable=0;points=[];" vertex="1" connectable="0" parent="NaBnMIQsTlutXxkyaKWA-30">
          <mxGeometry x="-0.1385" relative="1" as="geometry">
            <mxPoint y="-5" as="offset" />
          </mxGeometry>
        </mxCell>
        <mxCell id="NaBnMIQsTlutXxkyaKWA-41" style="edgeStyle=orthogonalEdgeStyle;rounded=0;orthogonalLoop=1;jettySize=auto;html=1;entryX=0.75;entryY=0;entryDx=0;entryDy=0;dashed=1;exitX=0;exitY=0.5;exitDx=0;exitDy=0;" edge="1" parent="1" source="NaBnMIQsTlutXxkyaKWA-21" target="NaBnMIQsTlutXxkyaKWA-39">
          <mxGeometry relative="1" as="geometry">
            <Array as="points">
              <mxPoint x="431" y="199" />
            </Array>
          </mxGeometry>
        </mxCell>
        <mxCell id="NaBnMIQsTlutXxkyaKWA-21" value="数字密码认证界面" style="rounded=0;whiteSpace=wrap;html=1;fontSize=9;fillColor=#dae8fc;strokeColor=none;" vertex="1" parent="1">
          <mxGeometry x="446" y="189" width="80" height="20" as="geometry" />
        </mxCell>
        <mxCell id="NaBnMIQsTlutXxkyaKWA-22" value="数字密码认证界面" style="rounded=0;whiteSpace=wrap;html=1;fontSize=9;dashed=1;" vertex="1" parent="1">
          <mxGeometry x="446" y="340" width="80" height="20" as="geometry" />
        </mxCell>
        <mxCell id="NaBnMIQsTlutXxkyaKWA-23" value="手势认证界面" style="rounded=0;whiteSpace=wrap;html=1;fontSize=9;dashed=1;" vertex="1" parent="1">
          <mxGeometry x="320" y="340" width="60" height="20" as="geometry" />
        </mxCell>
        <mxCell id="NaBnMIQsTlutXxkyaKWA-25" value="UIKit界面&lt;br style=&quot;font-size: 12px&quot;&gt;继承方案" style="shape=delay;whiteSpace=wrap;html=1;dashed=1;strokeColor=#000000;gradientColor=none;fontSize=12;fontColor=none;align=left;fillColor=none;fontStyle=1" vertex="1" parent="1">
          <mxGeometry x="200" y="80" width="80" height="40" as="geometry" />
        </mxCell>
        <mxCell id="NaBnMIQsTlutXxkyaKWA-26" value="" style="rounded=0;whiteSpace=wrap;html=1;dashed=1;align=left;" vertex="1" parent="1">
          <mxGeometry x="528" y="94.75" width="31" height="10.5" as="geometry" />
        </mxCell>
        <mxCell id="NaBnMIQsTlutXxkyaKWA-27" value="SDK对外&lt;br&gt;UI层和接口" style="text;html=1;strokeColor=none;fillColor=none;align=left;verticalAlign=middle;whiteSpace=wrap;rounded=0;dashed=1;fontSize=9;" vertex="1" parent="1">
          <mxGeometry x="565" y="90" width="65" height="20" as="geometry" />
        </mxCell>
        <mxCell id="NaBnMIQsTlutXxkyaKWA-33" value="继承" style="edgeLabel;html=1;align=center;verticalAlign=middle;resizable=0;points=[];" vertex="1" connectable="0" parent="1">
          <mxGeometry x="490" y="264" as="geometry">
            <mxPoint x="-140" y="-8" as="offset" />
          </mxGeometry>
        </mxCell>
        <mxCell id="NaBnMIQsTlutXxkyaKWA-37" value="数字密码认证界面" style="rounded=0;whiteSpace=wrap;html=1;fontSize=9;fillColor=#dae8fc;strokeColor=none;" vertex="1" parent="1">
          <mxGeometry x="470" y="355" width="80" height="20" as="geometry" />
        </mxCell>
        <mxCell id="NaBnMIQsTlutXxkyaKWA-38" value="手势认证界面" style="rounded=0;whiteSpace=wrap;html=1;fontSize=9;fillColor=#dae8fc;strokeColor=none;" vertex="1" parent="1">
          <mxGeometry x="300" y="355" width="60" height="20" as="geometry" />
        </mxCell>
        <mxCell id="NaBnMIQsTlutXxkyaKWA-42" style="edgeStyle=orthogonalEdgeStyle;rounded=0;orthogonalLoop=1;jettySize=auto;html=1;entryX=1;entryY=0.5;entryDx=0;entryDy=0;dashed=1;exitX=0.25;exitY=1;exitDx=0;exitDy=0;" edge="1" parent="1" source="NaBnMIQsTlutXxkyaKWA-39" target="NaBnMIQsTlutXxkyaKWA-38">
          <mxGeometry relative="1" as="geometry" />
        </mxCell>
        <mxCell id="NaBnMIQsTlutXxkyaKWA-43" style="edgeStyle=orthogonalEdgeStyle;rounded=0;orthogonalLoop=1;jettySize=auto;html=1;entryX=0;entryY=0.5;entryDx=0;entryDy=0;dashed=1;exitX=0.75;exitY=1;exitDx=0;exitDy=0;" edge="1" parent="1" source="NaBnMIQsTlutXxkyaKWA-39" target="NaBnMIQsTlutXxkyaKWA-37">
          <mxGeometry relative="1" as="geometry" />
        </mxCell>
        <mxCell id="NaBnMIQsTlutXxkyaKWA-39" value="界面注册接口" style="rounded=0;whiteSpace=wrap;html=1;strokeColor=#000000;fontSize=9;dashed=1;" vertex="1" parent="1">
          <mxGeometry x="378" y="300" width="71" height="20" as="geometry" />
        </mxCell>
        <mxCell id="NaBnMIQsTlutXxkyaKWA-44" value="" style="rounded=0;whiteSpace=wrap;html=1;dashed=1;align=left;fillColor=#dae8fc;strokeColor=none;" vertex="1" parent="1">
          <mxGeometry x="439" y="94.75" width="31" height="10.5" as="geometry" />
        </mxCell>
        <mxCell id="NaBnMIQsTlutXxkyaKWA-45" value="自定义UI" style="text;html=1;strokeColor=none;fillColor=none;align=left;verticalAlign=middle;whiteSpace=wrap;rounded=0;dashed=1;fontSize=9;" vertex="1" parent="1">
          <mxGeometry x="471" y="90" width="50" height="20" as="geometry" />
        </mxCell>
      </root>
    </mxGraphModel>
  </diagram>
</mxfile>
